<?xml version="1.0" standalone="no"?>
<!DOCTYPE svg PUBLIC "-//W3C//DTD SVG 20010904//EN"
 "http://www.w3.org/TR/2001/REC-SVG-20010904/DTD/svg10.dtd">
<svg version="1.0" xmlns="http://www.w3.org/2000/svg"
 width="74.000000pt" height="74.000000pt" viewBox="0 0 74.000000 74.000000"
 preserveAspectRatio="xMidYMid meet">
<metadata>
Created by potrace 1.13, written by Peter Selinger 2001-2015
</metadata>
<g transform="translate(0.000000,74.000000) scale(0.100000,-0.100000)"
fill="#fff" stroke="none">
<path d="M25 715 c-44 -43 -35 -58 112 -207 l137 -138 -137 -138 c-86 -87
-137 -146 -137 -159 0 -32 38 -73 68 -73 21 0 56 30 164 137 l138 138 138
-138 c148 -148 168 -159 210 -114 41 44 31 61 -115 209 l-137 138 137 138
c107 108 137 143 137 164 0 30 -41 68 -73 68 -13 0 -72 -51 -159 -137 l-138
-137 -138 137 c-149 147 -164 156 -207 112z"/>
</g>
</svg>
