<?xml version="1.0" standalone="no"?>
<!DOCTYPE svg PUBLIC "-//W3C//DTD SVG 20010904//EN"
 "http://www.w3.org/TR/2001/REC-SVG-20010904/DTD/svg10.dtd">
<svg version="1.0" xmlns="http://www.w3.org/2000/svg"
 width="168.000000pt" height="168.000000pt" viewBox="0 0 168.000000 168.000000"
 preserveAspectRatio="xMidYMid meet">
<metadata>
Created by potrace 1.13, written by Peter Selinger 2001-2015
</metadata>
<g transform="translate(0.000000,168.000000) scale(0.100000,-0.100000)"
fill="#d34836" stroke="none">
<path d="M216 1645 c-103 -42 -181 -138 -201 -247 l-7 -38 832 0 833 0 -7 41
c-15 93 -87 188 -179 237 l-52 27 -580 2 -580 3 -59 -25z"/>
<path d="M12 768 l3 -523 25 -49 c32 -63 93 -124 156 -156 l49 -25 595 0 595
0 50 24 c63 32 124 93 156 156 l24 50 3 523 3 522 -831 0 -831 0 3 -522z m778
367 c-14 -8 -42 -14 -62 -15 -44 0 -47 -8 -14 -39 36 -34 56 -83 56 -136 0
-63 -20 -101 -85 -164 -35 -34 -55 -62 -55 -76 0 -15 24 -44 75 -90 90 -80
105 -106 105 -178 0 -80 -43 -141 -131 -186 -57 -28 -80 -34 -157 -39 -197
-11 -312 61 -300 188 3 26 15 61 27 78 30 43 130 89 221 103 41 6 76 12 78 14
2 2 -4 15 -13 29 -12 19 -16 38 -12 66 l5 40 -47 0 c-29 0 -64 9 -91 23 -132
67 -147 230 -29 331 64 54 112 65 294 65 144 0 157 -1 135 -14z m490 -330 l0
-95 100 0 100 0 0 -60 0 -59 -97 -3 -98 -3 -3 -92 -3 -93 -59 0 -60 0 0 95 0
95 -95 0 -95 0 0 60 0 60 95 0 95 0 0 95 0 95 60 0 60 0 0 -95z"/>
<path d="M452 1103 c-44 -21 -62 -60 -62 -130 0 -115 71 -213 155 -213 85 0
134 71 115 168 -17 92 -62 158 -123 181 -37 14 -46 14 -85 -6z"/>
<path d="M467 549 c-87 -20 -137 -66 -144 -131 -9 -80 53 -139 165 -159 120
-21 221 21 242 102 15 54 -8 100 -78 156 -46 38 -59 43 -100 42 -26 -1 -64 -5
-85 -10z"/>
</g>
</svg>
