<?xml version="1.0" standalone="no"?>
<!DOCTYPE svg PUBLIC "-//W3C//DTD SVG 20010904//EN"
 "http://www.w3.org/TR/2001/REC-SVG-20010904/DTD/svg10.dtd">
<svg version="1.0" xmlns="http://www.w3.org/2000/svg"
 width="168.000000pt" height="168.000000pt" viewBox="0 0 168.000000 168.000000"
 preserveAspectRatio="xMidYMid meet">
<metadata>
Created by potrace 1.13, written by Peter Selinger 2001-2015
</metadata>
<g transform="translate(0.000000,168.000000) scale(0.100000,-0.100000)"
fill="#FFCC00" stroke="none">
<path d="M1046 1654 c-268 -65 -439 -345 -371 -609 24 -94 65 -164 135 -236
198 -201 512 -201 710 0 128 130 178 308 135 474 -71 272 -340 436 -609 371z
m365 -187 c104 -70 108 -206 7 -280 -38 -28 -116 -34 -162 -12 -97 46 -126
175 -59 256 52 62 151 79 214 36z"/>
<path d="M311 626 l-294 -294 -5 -74 c-5 -89 11 -174 40 -205 28 -30 113 -46
210 -41 62 4 83 9 101 26 20 19 35 22 98 22 110 0 119 9 119 116 l0 84 84 0
c106 0 116 10 116 117 l0 73 73 0 c100 0 117 13 117 88 l0 57 -57 24 c-31 14
-78 42 -104 63 -27 21 -52 38 -56 38 -4 0 -123 -115 -263 -255 -165 -164 -263
-255 -276 -255 -32 0 -56 24 -56 54 0 24 44 72 258 287 l258 259 -29 55 c-17
30 -32 55 -35 55 -3 0 -137 -132 -299 -294z"/>
</g>
</svg>
