<?xml version="1.0" standalone="no"?>
<!DOCTYPE svg PUBLIC "-//W3C//DTD SVG 20010904//EN"
 "http://www.w3.org/TR/2001/REC-SVG-20010904/DTD/svg10.dtd">
<svg version="1.0" xmlns="http://www.w3.org/2000/svg"
 width="166.000000pt" height="142.000000pt" viewBox="0 0 166.000000 142.000000"
 preserveAspectRatio="xMidYMid meet">
<metadata>
Created by potrace 1.13, written by Peter Selinger 2001-2015
</metadata>
<g transform="translate(0.000000,142.000000) scale(0.100000,-0.100000)"
fill="#000000" stroke="none">
<path d="M17 1383 c-3 -16 -8 -35 -12 -44 -5 -14 10 -20 84 -39 50 -12 94 -27
99 -34 5 -6 93 -231 196 -499 l189 -489 -22 -43 c-25 -51 -27 -95 -5 -141 33
-69 112 -104 185 -83 41 13 99 68 99 94 0 13 26 15 158 15 l157 -1 25 -40 c30
-49 71 -72 126 -72 153 0 212 204 82 283 -62 37 -167 19 -203 -36 -15 -24 -17
-24 -183 -24 l-168 0 -34 35 c-23 24 -47 38 -72 41 -21 4 -42 12 -47 18 -7 9
-51 114 -51 124 0 1 198 2 439 2 410 0 440 1 445 18 13 44 156 685 153 688 -2
2 -28 6 -58 10 l-54 6 -64 -288 c-36 -159 -68 -299 -72 -312 l-9 -22 -414 0
-414 0 -102 273 c-56 149 -124 331 -152 404 l-50 131 -111 26 c-62 15 -117 26
-123 26 -6 0 -14 -12 -17 -27z"/>
<path d="M544 986 c-3 -8 -4 -31 -2 -52 l3 -39 433 -3 432 -2 0 55 0 55 -430
0 c-359 0 -432 -2 -436 -14z"/>
<path d="M660 730 l0 -50 335 0 335 0 0 50 0 50 -335 0 -335 0 0 -50z"/>
</g>
</svg>
