<?xml version="1.0" standalone="no"?>
<!DOCTYPE svg PUBLIC "-//W3C//DTD SVG 20010904//EN"
 "http://www.w3.org/TR/2001/REC-SVG-20010904/DTD/svg10.dtd">
<svg version="1.0" xmlns="http://www.w3.org/2000/svg"
 width="167.000000pt" height="150.000000pt" viewBox="0 0 167.000000 150.000000"
 preserveAspectRatio="xMidYMid meet">
<metadata>
Created by potrace 1.13, written by Peter Selinger 2001-2015
</metadata>
<g transform="translate(0.000000,150.000000) scale(0.100000,-0.100000)"
fill="#fff" stroke="none">
<path d="M709 1467 c-141 -59 -213 -165 -213 -312 0 -67 4 -90 28 -142 115
-251 464 -264 603 -23 72 125 47 296 -57 400 -93 93 -246 126 -361 77z"/>
<path d="M473 760 c-200 -108 -372 -320 -453 -555 l-19 -54 42 -15 c126 -46
316 -88 506 -111 183 -23 525 -17 691 13 160 29 420 101 420 117 0 2 -17 46
-38 97 -90 223 -256 417 -440 511 -59 30 -64 31 -73 14 -27 -46 -76 -89 -137
-119 -58 -29 -76 -33 -147 -33 -71 0 -88 4 -147 33 -44 21 -82 50 -110 82
l-43 49 -52 -29z"/>
</g>
</svg>
