<?xml version="1.0" standalone="no"?>
<!DOCTYPE svg PUBLIC "-//W3C//DTD SVG 20010904//EN"
 "http://www.w3.org/TR/2001/REC-SVG-20010904/DTD/svg10.dtd">
<svg version="1.0" xmlns="http://www.w3.org/2000/svg"
 width="167.000000pt" height="138.000000pt" viewBox="0 0 167.000000 138.000000"
 preserveAspectRatio="xMidYMid meet">
<metadata>
Created by potrace 1.13, written by Peter Selinger 2001-2015
</metadata>
<g transform="translate(0.000000,138.000000) scale(0.100000,-0.100000)"
fill="#000000" stroke="none">
<path d="M714 1370 c-65 -13 -110 -36 -156 -79 -162 -149 -122 -413 78 -512
40 -20 64 -24 134 -24 98 0 155 23 221 88 113 113 119 302 14 425 -65 75 -195
121 -291 102z"/>
<path d="M1010 694 c-31 -47 -111 -100 -173 -115 -105 -26 -226 11 -302 92
-54 58 -54 58 -157 -10 -109 -72 -219 -192 -285 -311 -31 -54 -97 -210 -91
-215 25 -20 303 -88 458 -112 187 -28 599 -21 712 13 15 4 12 11 -16 49 -96
125 -86 304 23 418 20 21 49 46 66 54 l29 16 -39 34 c-36 31 -181 123 -195
123 -3 0 -16 -16 -30 -36z"/>
<path d="M1305 511 c-50 -23 -109 -84 -130 -133 -21 -51 -19 -153 4 -203 41
-92 148 -152 251 -142 257 23 316 370 80 476 -58 27 -150 27 -205 2z m137
-148 l3 -58 63 -3 c61 -3 62 -3 62 -32 l0 -30 -65 0 -65 0 0 -60 0 -60 -30 0
-30 0 0 60 0 60 -60 0 -60 0 0 30 0 30 60 0 60 0 0 60 c0 60 0 60 30 60 28 0
29 -1 32 -57z"/>
</g>
</svg>
